<svg version="1.2" preserveAspectRatio="xMidYMid meet" height="2048" viewBox="0 0 1536 1535.999932" zoomAndPan="magnify" width="2048" xmlns:xlink="http://www.w3.org/1999/xlink" xmlns="http://www.w3.org/2000/svg"><defs><clipPath id="fa21e9edff"><path d="M 836 683 L 1043 683 L 1043 918.644531 L 836 918.644531 Z M 836 683"></path></clipPath><clipPath id="afac789c81"><path d="M 1064 617.144531 L 1291 617.144531 L 1291 914 L 1064 914 Z M 1064 617.144531"></path></clipPath><clipPath id="442a566747"><path d="M 1274 684 L 1498 684 L 1498 918.644531 L 1274 918.644531 Z M 1274 684"></path></clipPath><clipPath id="550add3118"><path d="M 288 690 L 360 690 L 360 914 L 288 914 Z M 288 690"></path></clipPath><clipPath id="1f25780435"><path d="M 296.140625 690.683594 L 352.152344 690.683594 C 356.40625 690.683594 359.953125 694.222656 359.953125 698.476562 L 359.953125 905.316406 C 359.953125 909.566406 356.40625 913.109375 352.152344 913.109375 L 296.140625 913.109375 C 291.886719 913.109375 288.339844 909.566406 288.339844 905.316406 L 288.339844 698.476562 C 288.339844 694.222656 291.886719 690.683594 296.140625 690.683594 Z M 296.140625 690.683594"></path></clipPath><clipPath id="5a8ae8029f"><path d="M 38.050781 688.203125 L 197 688.203125 L 197 914.878906 L 38.050781 914.878906 Z M 38.050781 688.203125"></path></clipPath><clipPath id="550baf016e"><path d="M 131.644531 693.515625 L 38.761719 878.042969 C 36.988281 881.941406 38.40625 886.542969 42.304688 888.316406 L 92.292969 913.460938 C 96.191406 915.234375 100.800781 913.816406 102.574219 909.921875 L 195.457031 725.039062 C 197.230469 721.140625 195.8125 716.539062 191.910156 714.765625 L 141.925781 689.621094 C 140.859375 688.910156 139.796875 688.910156 138.378906 688.910156 C 135.898438 689.265625 133.0625 690.683594 131.644531 693.515625"></path></clipPath><clipPath id="a1311275ed"><path d="M 170 688 L 281 688 L 281 916 L 170 916 Z M 170 688"></path></clipPath><clipPath id="c3d25b255f"><path d="M 209.992188 694.222656 L 170.285156 895.398438 C 169.578125 899.648438 172.058594 903.542969 176.3125 904.605469 L 231.261719 915.585938 C 235.515625 916.296875 239.417969 913.816406 240.480469 909.566406 L 280.1875 708.390625 C 280.894531 704.140625 278.414062 700.246094 274.160156 699.183594 L 219.210938 688.203125 C 218.855469 688.203125 218.144531 688.203125 217.792969 688.203125 C 213.890625 687.847656 210.699219 690.328125 209.992188 694.222656"></path></clipPath></defs><g id="fd3e4c7f0e"><path d="M 538.273438 774.269531 L 538.273438 905.667969 C 538.273438 909.917969 534.726562 913.460938 530.472656 913.460938 L 473.75 913.460938 C 469.496094 913.460938 465.953125 909.917969 465.953125 905.667969 L 465.953125 698.121094 C 465.953125 693.871094 469.496094 690.328125 473.75 690.328125 L 530.472656 690.328125 C 534.726562 690.328125 538.273438 693.871094 538.273438 698.121094 L 538.273438 714.414062 C 552.453125 696.703125 572.660156 685.371094 600.667969 685.371094 C 626.902344 685.371094 649.945312 695.996094 663.773438 716.183594 C 680.789062 695.996094 704.894531 685.371094 734.320312 685.371094 C 784.308594 685.371094 818.695312 714.765625 818.695312 771.082031 L 818.695312 905.667969 C 818.695312 909.921875 815.148438 913.460938 810.894531 913.460938 L 754.171875 913.460938 C 749.917969 913.460938 746.375 909.921875 746.375 905.667969 L 746.375 786.3125 C 746.375 761.871094 732.546875 749.832031 713.757812 749.832031 C 698.160156 749.832031 685.75 759.746094 678.308594 774.269531 L 678.308594 905.667969 C 678.308594 909.921875 674.761719 913.460938 670.507812 913.460938 L 613.785156 913.460938 C 609.53125 913.460938 605.984375 909.921875 605.984375 905.667969 L 605.984375 786.3125 C 605.984375 761.871094 592.160156 749.832031 573.371094 749.832031 C 557.417969 749.832031 545.363281 759.746094 538.273438 774.269531" style="stroke:none;fill-rule:nonzero;fill:#000000;fill-opacity:1;"></path><g clip-path="url(#fa21e9edff)" clip-rule="nonzero"><path d="M 913.707031 918.066406 C 871.871094 918.066406 836.421875 890.441406 836.421875 847.585938 C 836.421875 808.269531 862.300781 790.207031 910.515625 777.457031 L 972.199219 761.519531 C 970.429688 746.644531 958.730469 739.558594 939.9375 739.558594 C 923.277344 739.558594 911.222656 745.933594 905.90625 758.683594 C 904.488281 762.226562 900.589844 764.351562 897.042969 763.289062 L 848.121094 751.601562 C 843.511719 750.539062 841.03125 745.582031 842.449219 741.332031 C 856.628906 703.433594 895.269531 683.597656 942.421875 683.597656 C 1005.878906 683.597656 1042.394531 713.351562 1042.394531 766.121094 L 1042.394531 905.667969 C 1042.394531 909.921875 1038.847656 913.460938 1034.59375 913.460938 L 981.0625 913.460938 C 976.808594 913.460938 973.265625 910.273438 973.265625 906.023438 L 972.910156 894.335938 L 972.554688 894.691406 C 954.121094 910.273438 936.394531 918.066406 913.707031 918.066406 M 931.785156 862.105469 C 941.003906 862.105469 948.449219 859.273438 959.082031 853.25 L 971.492188 845.8125 L 971.847656 809.6875 L 939.585938 818.542969 C 917.605469 824.917969 908.03125 830.230469 908.03125 842.625 C 908.03125 856.4375 920.085938 862.105469 931.785156 862.105469" style="stroke:none;fill-rule:nonzero;fill:#000000;fill-opacity:1;"></path></g><g clip-path="url(#afac789c81)" clip-rule="nonzero"><path d="M 1157.964844 808.269531 L 1135.988281 828.457031 L 1135.988281 906.023438 C 1135.988281 910.273438 1132.441406 913.816406 1128.1875 913.816406 L 1072.527344 913.816406 C 1068.273438 913.816406 1064.730469 910.273438 1064.730469 906.023438 L 1064.730469 625.160156 C 1064.730469 620.910156 1068.273438 617.367188 1072.527344 617.367188 L 1128.1875 617.367188 C 1132.441406 617.367188 1135.988281 620.910156 1135.988281 625.160156 L 1135.988281 751.957031 L 1200.863281 692.453125 C 1202.28125 691.035156 1204.054688 690.328125 1206.179688 690.328125 L 1274.601562 690.328125 C 1281.691406 690.328125 1284.882812 699.183594 1279.921875 703.789062 L 1213.269531 764.351562 L 1289.136719 901.773438 C 1291.972656 907.085938 1288.074219 913.109375 1282.402344 913.109375 L 1217.523438 913.109375 C 1214.6875 913.109375 1211.851562 911.335938 1210.789062 908.855469 Z M 1157.964844 808.269531" style="stroke:none;fill-rule:nonzero;fill:#000000;fill-opacity:1;"></path></g><g clip-path="url(#442a566747)" clip-rule="nonzero"><path d="M 1393.363281 918.421875 C 1331.324219 918.421875 1274.601562 879.460938 1274.601562 801.1875 C 1274.601562 727.164062 1329.199219 684.308594 1388.757812 684.308594 C 1448.316406 684.308594 1495.820312 727.515625 1497.59375 795.875 C 1497.945312 802.957031 1497.945312 808.269531 1497.945312 811.8125 C 1497.945312 816.0625 1494.402344 819.605469 1490.148438 819.605469 L 1346.214844 819.605469 C 1348.339844 846.523438 1369.96875 863.167969 1397.265625 863.167969 C 1416.761719 863.167969 1432.363281 855.023438 1443.707031 840.5 C 1446.1875 837.3125 1450.796875 836.605469 1453.988281 838.730469 L 1490.148438 862.8125 C 1493.691406 865.292969 1494.757812 870.25 1492.273438 873.792969 C 1472.777344 902.128906 1440.871094 918.421875 1393.363281 918.421875 M 1347.632812 775.6875 L 1425.625 775.6875 C 1425.269531 750.183594 1406.480469 739.207031 1386.628906 739.207031 C 1368.550781 739.207031 1349.757812 749.832031 1347.632812 775.6875" style="stroke:none;fill-rule:nonzero;fill:#000000;fill-opacity:1;"></path></g><g clip-path="url(#550add3118)" clip-rule="nonzero"><g clip-path="url(#1f25780435)" clip-rule="nonzero"><path d="M 216.21875 717.132812 L 351.273438 667.378906 L 431.984375 886.050781 L 296.929688 935.804688 Z M 216.21875 717.132812" style="stroke:none;fill-rule:nonzero;fill:#000000;fill-opacity:1;"></path></g></g><g clip-path="url(#5a8ae8029f)" clip-rule="nonzero"><g clip-path="url(#550baf016e)" clip-rule="nonzero"><path d="M -45.488281 724.757812 L 172.535156 630.597656 L 280.429688 879.949219 L 62.40625 974.113281 Z M -45.488281 724.757812" style="stroke:none;fill-rule:nonzero;fill:#000000;fill-opacity:1;"></path></g></g><g clip-path="url(#a1311275ed)" clip-rule="nonzero"><g clip-path="url(#c3d25b255f)" clip-rule="nonzero"><path d="M 95.261719 714.90625 L 267.589844 651.519531 L 355.042969 888.828125 L 182.71875 952.214844 Z M 95.261719 714.90625" style="stroke:none;fill-rule:nonzero;fill:#000000;fill-opacity:1;"></path></g></g></g></svg>