<?xml version="1.0" encoding="UTF-8"?><svg id="a" xmlns="http://www.w3.org/2000/svg" width="245.1" height="64" xmlns:xlink="http://www.w3.org/1999/xlink" viewBox="0 0 245.1 64"><defs><radialGradient id="b" cx="46.07" cy="15.56" fx="46.07" fy="15.56" r="23.87" gradientUnits="userSpaceOnUse"><stop offset=".21" stop-color="#faf2ad"/><stop offset=".92" stop-color="#ffa163"/></radialGradient><linearGradient id="c" x1="19.19" y1="23.06" x2="57.82" y2="46.65" gradientUnits="userSpaceOnUse"><stop offset="0" stop-color="#2fd2c4"/><stop offset=".33" stop-color="#4f99da"/><stop offset=".69" stop-color="#8438ff"/></linearGradient></defs><path d="m57.63.59l-15.38,15.01,25.21,24.6,15.38-15.01c.79-.77.79-2.02,0-2.79L60.49.59c-.79-.77-2.07-.77-2.86,0Z" fill="url(#b)"/><path d="m26.84.57c-.78-.76-2.03-.76-2.8,0L1.67,22.38c-.8.78-.8,2.06,0,2.84l39.16,38.21c.78.76,2.03.76,2.8,0l23.82-23.24L26.84.57Z" fill="url(#c)"/><path d="m100.67,15.65h8.15l8.53,25.56h.09l8.43-25.56h8.2l-12.18,32.5h-9.04l-12.18-32.5Z" fill="#091c1e"/><path d="m136.44,24.78h7.03v23.37h-7.03v-23.37Zm3.56-3.24c-1.25,0-2.26-.37-3.05-1.1-.78-.76-1.17-1.73-1.17-2.92,0-.79.17-1.48.52-2.05.37-.61.87-1.08,1.5-1.42.62-.33,1.36-.5,2.2-.5,1.28,0,2.31.37,3.09,1.1.78.73,1.17,1.69,1.17,2.88,0,.79-.19,1.49-.56,2.1-.34.61-.84,1.08-1.5,1.41-.62.33-1.36.5-2.2.5Z" fill="#091c1e"/><path d="m159.83,49.06c-1.91,0-3.56-.35-4.97-1.05-1.37-.7-2.45-1.69-3.23-2.97-.75-1.31-1.12-2.81-1.12-4.52v-10.54h-4.59v-5.2h4.59v-6.44l7.08-1.51-.05,7.94h9.75v5.2h-9.75l.05,9.45c0,.82.16,1.55.47,2.19.31.61.75,1.08,1.31,1.42.56.33,1.2.5,1.92.5,1.09,0,2.05-.27,2.86-.82.81-.58,1.5-1.41,2.06-2.51l2.48,4.06c-.78,1.49-1.98,2.66-3.61,3.51-1.62.85-3.37,1.28-5.25,1.28Z" fill="#091c1e"/><path d="m178.85,48.88c-1.69,0-3.2-.29-4.54-.87-1.31-.58-2.34-1.38-3.09-2.42-.72-1.03-1.08-2.22-1.08-3.56,0-2.07.89-3.77,2.67-5.11,1.81-1.37,4.4-2.22,7.78-2.56l4.78-.5c.59-.06,1.06-.24,1.41-.55.37-.33.56-.76.56-1.28,0-.58-.19-1.1-.56-1.55-.34-.46-.86-.82-1.55-1.1-.69-.27-1.47-.41-2.34-.41-.97,0-1.84.2-2.62.59-.78.4-1.41.91-1.87,1.55-.47.64-.75,1.34-.84,2.1l-6.75-1.23c.16-1.55.75-2.94,1.78-4.15,1.03-1.25,2.42-2.22,4.17-2.92,1.78-.7,3.78-1.05,6-1.05s4.34.38,6.09,1.14c1.75.76,3.09,1.84,4.03,3.24.94,1.4,1.41,3.03,1.41,4.88v9.31c0,.49.09.87.28,1.14.22.27.5.41.84.41.28,0,.58-.09.89-.27.34-.18.62-.44.84-.78l1.87,3.7c-.69.7-1.59,1.25-2.72,1.64-1.09.4-2.22.59-3.37.59-.97,0-1.84-.18-2.62-.55-.75-.33-1.37-.79-1.87-1.37-.5-.61-.8-1.26-.89-1.96l-.09-.55h-.05c-.56.88-1.26,1.66-2.11,2.33-.81.67-1.76,1.19-2.86,1.55-1.09.37-2.28.55-3.56.55Zm2.58-4.88c1.09,0,2.08-.23,2.95-.68.91-.46,1.61-1.08,2.11-1.87.5-.82.75-1.73.75-2.74v-1l-4.97.5c-1.75.18-3.05.55-3.89,1.1-.81.55-1.22,1.22-1.22,2.01s.39,1.45,1.17,1.96c.81.49,1.84.73,3.09.73Z" fill="#091c1e"/><path d="m200.91,14.28h7.08v33.87h-7.08V14.28Z" fill="#091c1e"/><path d="m211.8,14.28h7.07v33.87h-7.07V14.28Z" fill="#091c1e"/><path d="m232.2,58.65c-1.69,0-3.31-.18-4.87-.55-1.53-.37-2.9-.88-4.12-1.55-1.19-.67-2.17-1.48-2.95-2.42l2.95-4.84c.63.76,1.38,1.42,2.25,1.96.9.55,1.87.96,2.9,1.23,1.06.27,2.15.41,3.28.41,1.53,0,2.86-.26,3.98-.78,1.16-.52,2.03-1.26,2.62-2.24.63-.94.94-2.07.94-3.38v-1.73h-.05c-.78,1.37-1.84,2.45-3.19,3.24-1.34.79-2.79,1.19-4.36,1.19-1.81,0-3.39-.38-4.73-1.14-1.34-.79-2.39-1.89-3.14-3.29-.72-1.4-1.08-3.03-1.08-4.88v-15.11h7.08v14.01c0,.94.17,1.78.51,2.51.34.7.84,1.25,1.5,1.64.66.4,1.44.59,2.34.59s1.75-.21,2.53-.64c.78-.43,1.39-1.02,1.83-1.78.47-.79.7-1.69.7-2.69v-13.65h7.03l.05,21.91c0,2.46-.58,4.58-1.73,6.34-1.15,1.8-2.79,3.18-4.92,4.15-2.09.97-4.54,1.46-7.36,1.46Z" fill="#091c1e"/></svg>